<svg xmlns="http://www.w3.org/2000/svg" version="1.0" width="153.000000pt" height="184.000000pt" viewBox="0 0 153.000000 184.000000" preserveAspectRatio="xMidYMid meet">
<metadata>
Created by potrace 1.16, written by Peter Selinger 2001-2019
</metadata>
<g transform="translate(0.000000,184.000000) scale(0.100000,-0.100000)" fill="#000000" stroke="none">
<path d="M223 1683 c-23 -14 -51 -43 -62 -63 -21 -37 -21 -47 -21 -700 l0 -663 24 -41 c13 -23 42 -51 64 -64 40 -22 41 -22 532 -22 l493 0 41 24 c23 13 51 42 64 64 l22 40 0 662 0 663 -24 41 c-13 23 -42 51 -64 64 -40 22 -41 22 -534 22 l-494 0 -41 -27z m797 -415 l55 -13 8 -65 c6 -42 5 -75 -2 -92 -9 -25 -14 -27 -43 -20 -71 15 -228 3 -228 -18 0 -19 43 -48 100 -69 70 -26 154 -98 170 -145 22 -68 -24 -185 -90 -231 -72 -50 -137 -68 -245 -69 -105 0 -185 14 -247 45 -34 18 -37 22 -47 91 -7 40 -14 83 -17 96 -5 27 2 27 57 2 62 -28 219 -28 219 1 0 4 -35 26 -78 49 -137 71 -192 154 -171 261 4 24 8 47 9 51 0 15 74 90 102 104 67 35 130 44 263 39 72 -2 155 -10 185 -17z"/>
</g>
</svg>